<svg width="32" height="32" viewBox="0 0 32 32" fill="none" xmlns="http://www.w3.org/2000/svg">
  <rect width="32" height="32" rx="4" fill="#00599C"/>
  <path d="M8 8H12C13.1 8 14 8.9 14 10V12C14 13.1 13.1 14 12 14H8V8Z" fill="white"/>
  <path d="M18 8H22C23.1 8 24 8.9 24 10V12C24 13.1 23.1 14 22 14H18V8Z" fill="white"/>
  <path d="M8 18H12C13.1 18 14 18.9 14 20V22C14 23.1 13.1 24 12 24H8V18Z" fill="white"/>
  <path d="M18 18H22C23.1 18 24 18.9 24 20V22C24 23.1 23.1 24 22 24H18V18Z" fill="white"/>
  <path d="M16 8H18V24H16V8Z" fill="white"/>
</svg>
